<svg xmlns="http://www.w3.org/2000/svg" width="114.916" height="72.265" viewBox="0 0 114.916 72.265">
  <g id="Group_25" data-name="Group 25" transform="translate(-91.66 -114.615)">
    <g id="Group_23" data-name="Group 23" transform="translate(102.512 159.837)">
      <path id="Path_20" data-name="Path 20" d="M187.721,354.475l-6.873,10.76h-6.9v-1.859h3.652l1.86-3.32h-5.512v-1.191h6.705l2.923-4.718H152.032l-2.895,4.718h7.742l-.133,10.552h6.174l.087-10.552h4.231v10.552h15.214l1.783-1.393,2.058,1.393h9.229v-15.2h-7.635Zm2.224,10.362h-4.45l2.226-3.287,2.224-3.286Z" transform="translate(-149.137 -354.148)" fill="#141215"/>
      <path id="Path_21" data-name="Path 21" d="M437.039,354.5H436.6l-7.3,10.889H423.72l.067-6.175h5.378l2.986-4.714H417.745v10.889h-8.233V354.5h-6.241v15.2h11.751l2.723-1.793V369.7h13.878l1.459-1.66,2.125,1.66h9.561V354.5Zm2.225,9.952h-4.449l2.224-3.286,2.225-3.287Z" transform="translate(-355.292 -354.432)" fill="#141215"/>
    </g>
    <g id="Group_24" data-name="Group 24" transform="translate(139.468 114.615)">
      <path id="Path_22" data-name="Path 22" d="M366.219,119.458a6.528,6.528,0,0,0-5.671-4.843l-6.214.036,0,.007q-3.93.012-4.65,3.415l-4.8,14.776,9.7,7.481.509-.384,9.281-7-2.956-10.067q2.964-1.2,1.756,2.68C365.216,125.4,366.822,121.869,366.219,119.458Zm-11.128,4.315a2.563,2.563,0,1,1,2.541-2.562A2.555,2.555,0,0,1,355.091,123.773Z" transform="translate(-344.885 -114.615)" fill="#00559e" fill-rule="evenodd"/>
      <path id="Path_23" data-name="Path 23" d="M391.89,140.955l-.08,0a1.666,1.666,0,0,0,0,3.33l.08,0a1.667,1.667,0,0,0,0-3.325Z" transform="translate(-381.637 -135.981)" fill="#00559e" fill-rule="evenodd"/>
    </g>
    <path id="Path_24" data-name="Path 24" d="M149.118,163.722h0l.031.026,10.336-8.159,47.089-13.929-3.233,4.729-8.865,2.754-1.31,1.813-9.265,3.021-.924,1.108-9.574,2.8.081.347,26.325-6.682-3.277,4.767-8.585,2.122-1.226,1.578-9.267,2.317-.6,1.006-7.454,2.015-.5.531,24.712-5.366-2.532,3.547-8.89,2.195-.705,1.107-9.266,1.613-.505,1.309-6.446,1.007v.5l22.6-3.055-1.947,2.9-8.566,1.164-.906.906-7.856,1.208-.907,1.31-5.6-.013v.674l20.232-.1-2.215,3.266H118.13l-2.213-3.266,20.231.1v-.674l-5.6.013-.907-1.31-7.857-1.208-.906-.906-8.566-1.164-1.948-2.9,22.6,3.055v-.5l-6.447-1.007-.5-1.309-9.268-1.613-.705-1.107-8.889-2.195-2.532-3.547,24.712,5.366-.5-.531-7.454-2.015-.6-1.006-9.266-2.317-1.226-1.578-8.585-2.122-3.279-4.767,26.327,6.682.08-.347-9.574-2.8-.923-1.108-9.267-3.021-1.31-1.813-8.866-2.754-3.231-4.729L138.75,155.59l10.336,8.159.031-.026Z" transform="translate(0 -21.94)" fill="#00559e" fill-rule="evenodd"/>
    <path id="Path_25" data-name="Path 25" d="M354.543,443.813H370.2l-7.946,10.114Z" transform="translate(-213.251 -267.047)" fill="#00559e" fill-rule="evenodd"/>
  </g>
</svg>
